<mxfile host="app.diagrams.net" agent="Mozilla/5.0 (Windows NT 10.0; Win64; x64; rv:136.0) Gecko/20100101 Firefox/136.0" version="26.1.3">
  <diagram name="Page-1" id="edf60f1a-56cd-e834-aa8a-f176f3a09ee4">
    <mxGraphModel dx="2524" dy="1589" grid="1" gridSize="10" guides="1" tooltips="1" connect="1" arrows="1" fold="1" page="1" pageScale="1" pageWidth="1100" pageHeight="850" background="none" math="0" shadow="0">
      <root>
        <mxCell id="0" />
        <mxCell id="1" parent="0" />
        <mxCell id="jbu7-Niww6oIqpqLh8VJ-52" value="" style="rounded=0;whiteSpace=wrap;html=1;fillColor=#f5f5f5;fontColor=#333333;strokeColor=#666666;" vertex="1" parent="1">
          <mxGeometry x="610" y="90" width="240" height="410" as="geometry" />
        </mxCell>
        <mxCell id="60e70716793133e9-32" style="edgeStyle=orthogonalEdgeStyle;rounded=0;html=1;labelBackgroundColor=none;startSize=5;endArrow=classicThin;endFill=1;endSize=5;jettySize=auto;orthogonalLoop=1;strokeWidth=1;fontFamily=Verdana;fontSize=8;exitX=0.5;exitY=1;exitDx=0;exitDy=0;entryX=0.5;entryY=0;entryDx=0;entryDy=0;" parent="1" source="jbu7-Niww6oIqpqLh8VJ-2" target="jbu7-Niww6oIqpqLh8VJ-3" edge="1">
          <mxGeometry relative="1" as="geometry">
            <mxPoint x="350" y="180" as="sourcePoint" />
          </mxGeometry>
        </mxCell>
        <mxCell id="60e70716793133e9-33" value="&lt;div&gt;clkMode=3&lt;/div&gt;&lt;div&gt;(setup)&lt;/div&gt;" style="edgeStyle=orthogonalEdgeStyle;rounded=0;html=1;labelBackgroundColor=none;startSize=5;endArrow=classicThin;endFill=1;endSize=5;jettySize=auto;orthogonalLoop=1;strokeWidth=1;fontFamily=Verdana;fontSize=8;entryX=0.5;entryY=0;entryDx=0;entryDy=0;" parent="1" source="60e70716793133e9-5" target="60e70716793133e9-8" edge="1">
          <mxGeometry x="-0.76" y="20" relative="1" as="geometry">
            <mxPoint as="offset" />
            <mxPoint x="390" y="164" as="targetPoint" />
          </mxGeometry>
        </mxCell>
        <mxCell id="60e70716793133e9-37" value="&lt;div&gt;clkMode=2&lt;/div&gt;&lt;div&gt;(HHMM)&lt;/div&gt;" style="edgeStyle=orthogonalEdgeStyle;rounded=0;html=1;labelBackgroundColor=none;startSize=5;endArrow=classicThin;endFill=1;endSize=5;jettySize=auto;orthogonalLoop=1;strokeWidth=1;fontFamily=Verdana;fontSize=8" parent="1" source="60e70716793133e9-5" target="60e70716793133e9-9" edge="1">
          <mxGeometry x="-0.2" y="-30" relative="1" as="geometry">
            <mxPoint as="offset" />
          </mxGeometry>
        </mxCell>
        <mxCell id="60e70716793133e9-5" value="switch clkMode" style="rhombus;whiteSpace=wrap;html=1;rounded=0;shadow=1;labelBackgroundColor=none;strokeWidth=1;fontFamily=Verdana;fontSize=8;align=center;" parent="1" vertex="1">
          <mxGeometry x="190" y="134" width="100" height="40" as="geometry" />
        </mxCell>
        <mxCell id="60e70716793133e9-35" value="&lt;div&gt;clkMode=1&lt;/div&gt;&lt;div&gt;(MMSS)&lt;/div&gt;" style="edgeStyle=orthogonalEdgeStyle;rounded=0;html=1;labelBackgroundColor=none;startSize=5;endArrow=classicThin;endFill=1;endSize=5;jettySize=auto;orthogonalLoop=1;strokeWidth=1;fontFamily=Verdana;fontSize=8" parent="1" target="60e70716793133e9-10" edge="1">
          <mxGeometry x="-0.6842" y="-20" relative="1" as="geometry">
            <mxPoint x="440" y="214" as="targetPoint" />
            <Array as="points" />
            <mxPoint as="offset" />
            <mxPoint x="190" y="154" as="sourcePoint" />
          </mxGeometry>
        </mxCell>
        <mxCell id="60e70716793133e9-8" value="&lt;div&gt;&lt;font style=&quot;font-size: 12px;&quot;&gt;setupClock()&lt;/font&gt;&lt;/div&gt;&lt;div&gt;&lt;font style=&quot;font-size: 12px;&quot;&gt;to set hh, mm, ss. &lt;br&gt;&lt;/font&gt;&lt;/div&gt;&lt;div&gt;&lt;font style=&quot;font-size: 12px;&quot;&gt;&lt;br&gt;&lt;/font&gt;&lt;/div&gt;&lt;div&gt;&lt;font style=&quot;font-size: 12px;&quot;&gt;setupClock() returns when the setup is done&lt;/font&gt;&lt;/div&gt;" style="rounded=1;whiteSpace=wrap;html=1;shadow=1;labelBackgroundColor=none;strokeWidth=1;fontFamily=Verdana;fontSize=8;align=center;fillColor=#d5e8d4;strokeColor=#82b366;" parent="1" vertex="1">
          <mxGeometry x="350" y="201" width="190" height="100" as="geometry" />
        </mxCell>
        <mxCell id="60e70716793133e9-38" style="edgeStyle=orthogonalEdgeStyle;rounded=0;html=1;labelBackgroundColor=none;startSize=5;endArrow=classicThin;endFill=1;endSize=5;jettySize=auto;orthogonalLoop=1;strokeWidth=1;fontFamily=Verdana;fontSize=8;exitX=0.5;exitY=1;exitDx=0;exitDy=0;" parent="1" source="60e70716793133e9-9" edge="1">
          <mxGeometry relative="1" as="geometry">
            <mxPoint x="70" y="290" as="targetPoint" />
            <Array as="points">
              <mxPoint x="240" y="290" />
            </Array>
          </mxGeometry>
        </mxCell>
        <UserObject label="&lt;div&gt;display the HHMM at the 7-seg LED&lt;/div&gt;&lt;div&gt;displayClock(clkMode)&lt;/div&gt;" link="&#xa;Diagrams.net&#xa;&#xa;" id="60e70716793133e9-9">
          <mxCell style="whiteSpace=wrap;html=1;rounded=0;shadow=1;labelBackgroundColor=none;strokeWidth=1;fontFamily=Verdana;fontSize=8;align=center;fillColor=#fff2cc;strokeColor=#d6b656;" parent="1" vertex="1">
            <mxGeometry x="180" y="224" width="120" height="40" as="geometry" />
          </mxCell>
        </UserObject>
        <mxCell id="60e70716793133e9-10" value="&lt;div&gt;display the MMSS at the 7-seg LED&lt;/div&gt;&lt;div&gt;displayClock(clkMode)&lt;/div&gt;" style="whiteSpace=wrap;html=1;rounded=0;shadow=1;labelBackgroundColor=none;strokeWidth=1;fontFamily=Verdana;fontSize=8;align=center;fillColor=#fff2cc;strokeColor=#d6b656;" parent="1" vertex="1">
          <mxGeometry x="10" y="224" width="120" height="40" as="geometry" />
        </mxCell>
        <mxCell id="60e70716793133e9-40" style="edgeStyle=orthogonalEdgeStyle;rounded=0;html=1;labelBackgroundColor=none;startSize=5;endArrow=classicThin;endFill=1;endSize=5;jettySize=auto;orthogonalLoop=1;strokeWidth=1;fontFamily=Verdana;fontSize=8;exitX=0.5;exitY=1;exitDx=0;exitDy=0;" parent="1" source="jbu7-Niww6oIqpqLh8VJ-5" edge="1">
          <mxGeometry relative="1" as="geometry">
            <mxPoint x="70" y="430" as="targetPoint" />
          </mxGeometry>
        </mxCell>
        <mxCell id="60e70716793133e9-12" value="clkMode=1" style="whiteSpace=wrap;html=1;rounded=0;shadow=1;labelBackgroundColor=none;strokeWidth=1;fontFamily=Verdana;fontSize=8;align=center;spacing=6;" parent="1" vertex="1">
          <mxGeometry x="-38" y="470" width="60" height="20" as="geometry" />
        </mxCell>
        <mxCell id="60e70716793133e9-42" style="edgeStyle=orthogonalEdgeStyle;rounded=0;html=1;labelBackgroundColor=none;startSize=5;endArrow=classicThin;endFill=1;endSize=5;jettySize=auto;orthogonalLoop=1;strokeWidth=1;fontFamily=Verdana;fontSize=8;entryX=0.5;entryY=0;entryDx=0;entryDy=0;" parent="1" target="jbu7-Niww6oIqpqLh8VJ-7" edge="1">
          <mxGeometry relative="1" as="geometry">
            <mxPoint x="70" y="430" as="sourcePoint" />
          </mxGeometry>
        </mxCell>
        <mxCell id="jbu7-Niww6oIqpqLh8VJ-28" value="3, S3" style="edgeLabel;html=1;align=center;verticalAlign=middle;resizable=0;points=[];" vertex="1" connectable="0" parent="60e70716793133e9-42">
          <mxGeometry x="0.2753" y="-2" relative="1" as="geometry">
            <mxPoint x="22" y="-5" as="offset" />
          </mxGeometry>
        </mxCell>
        <mxCell id="60e70716793133e9-13" value="clkMode=2" style="whiteSpace=wrap;html=1;rounded=0;shadow=1;labelBackgroundColor=none;strokeWidth=1;fontFamily=Verdana;fontSize=8;align=center;" parent="1" vertex="1">
          <mxGeometry x="37" y="470" width="60" height="20" as="geometry" />
        </mxCell>
        <mxCell id="60e70716793133e9-43" value="" style="edgeStyle=orthogonalEdgeStyle;rounded=0;html=1;labelBackgroundColor=none;startSize=5;endArrow=classicThin;endFill=1;endSize=5;jettySize=auto;orthogonalLoop=1;strokeWidth=1;fontFamily=Verdana;fontSize=8;exitX=0.5;exitY=1;exitDx=0;exitDy=0;entryX=0.5;entryY=0;entryDx=0;entryDy=0;" parent="1" source="60e70716793133e9-8" target="jbu7-Niww6oIqpqLh8VJ-29" edge="1">
          <mxGeometry x="-0.6667" y="10" relative="1" as="geometry">
            <mxPoint as="offset" />
            <mxPoint x="490" y="360" as="sourcePoint" />
            <mxPoint x="500" y="460" as="targetPoint" />
          </mxGeometry>
        </mxCell>
        <mxCell id="60e70716793133e9-45" style="edgeStyle=orthogonalEdgeStyle;rounded=0;html=1;labelBackgroundColor=none;startSize=5;endArrow=classicThin;endFill=1;endSize=5;jettySize=auto;orthogonalLoop=1;strokeWidth=2;fontFamily=Verdana;fontSize=8;exitX=0.5;exitY=1;exitDx=0;exitDy=0;jumpSize=8;" parent="1" source="jbu7-Niww6oIqpqLh8VJ-29" edge="1">
          <mxGeometry relative="1" as="geometry">
            <Array as="points">
              <mxPoint x="445" y="510" />
            </Array>
            <mxPoint x="150" y="510" as="targetPoint" />
          </mxGeometry>
        </mxCell>
        <mxCell id="jbu7-Niww6oIqpqLh8VJ-2" value="Start" style="ellipse;whiteSpace=wrap;html=1;aspect=fixed;" vertex="1" parent="1">
          <mxGeometry x="220" y="-80" width="40" height="40" as="geometry" />
        </mxCell>
        <UserObject label="&lt;br&gt;&lt;div align=&quot;left&quot;&gt;&lt;br&gt;&lt;/div&gt;&lt;p align=&quot;left&quot; lang=&quot;en-US&quot; style=&quot;margin:0in;font-family:Calibri;font-size:12.0pt&quot;&gt;Initialize hh=0, mm=0, ss=0&lt;/p&gt;&lt;p align=&quot;left&quot; lang=&quot;en-US&quot; style=&quot;margin:0in;font-family:Calibri;font-size:12.0pt&quot;&gt;Initialize Ticker mySecTicker, attach&amp;nbsp; &lt;br&gt;&lt;/p&gt;&lt;p align=&quot;left&quot; lang=&quot;en-US&quot; style=&quot;margin:0in;font-family:Calibri;font-size:12.0pt&quot;&gt;&amp;nbsp; updateHHMMSS() to mySecTicker, once very 1 sec&lt;/p&gt;&lt;p align=&quot;left&quot; lang=&quot;en-US&quot; style=&quot;margin:0in;font-family:Calibri;font-size:12.0pt&quot;&gt;clkMode = 1&lt;/p&gt;&lt;div align=&quot;left&quot;&gt;&lt;br&gt;&lt;/div&gt;&lt;div align=&quot;left&quot;&gt;&lt;br&gt;&lt;/div&gt;" id="jbu7-Niww6oIqpqLh8VJ-3">
          <mxCell style="whiteSpace=wrap;html=1;rounded=0;shadow=1;labelBackgroundColor=none;strokeWidth=1;fontFamily=Verdana;fontSize=8;align=left;" vertex="1" parent="1">
            <mxGeometry x="64" y="-23" width="350" height="120" as="geometry" />
          </mxCell>
        </UserObject>
        <mxCell id="jbu7-Niww6oIqpqLh8VJ-5" value="swith btnState" style="rhombus;whiteSpace=wrap;html=1;rounded=0;shadow=1;labelBackgroundColor=none;strokeWidth=1;fontFamily=Verdana;fontSize=8;align=center;" vertex="1" parent="1">
          <mxGeometry y="380" width="140" height="30" as="geometry" />
        </mxCell>
        <mxCell id="jbu7-Niww6oIqpqLh8VJ-6" value="clkMode=3" style="whiteSpace=wrap;html=1;rounded=0;shadow=1;labelBackgroundColor=none;strokeWidth=1;fontFamily=Verdana;fontSize=8;align=center;" vertex="1" parent="1">
          <mxGeometry x="120" y="470" width="60" height="20" as="geometry" />
        </mxCell>
        <mxCell id="jbu7-Niww6oIqpqLh8VJ-7" value="&lt;b style=&quot;color: rgb(153, 0, 0);&quot;&gt;Exit&lt;/b&gt;" style="ellipse;whiteSpace=wrap;html=1;" vertex="1" parent="1">
          <mxGeometry x="195" y="550" width="40" height="20" as="geometry" />
        </mxCell>
        <mxCell id="jbu7-Niww6oIqpqLh8VJ-8" style="edgeStyle=orthogonalEdgeStyle;rounded=0;html=1;labelBackgroundColor=none;startSize=5;endArrow=classicThin;endFill=1;endSize=5;jettySize=auto;orthogonalLoop=1;strokeWidth=1;fontFamily=Verdana;fontSize=8;entryX=0.5;entryY=0;entryDx=0;entryDy=0;" edge="1" parent="1" target="jbu7-Niww6oIqpqLh8VJ-6">
          <mxGeometry relative="1" as="geometry">
            <mxPoint x="133" y="430" as="sourcePoint" />
            <mxPoint x="165" y="435" as="targetPoint" />
            <Array as="points">
              <mxPoint x="133" y="430" />
            </Array>
          </mxGeometry>
        </mxCell>
        <mxCell id="jbu7-Niww6oIqpqLh8VJ-27" value="&lt;div style=&quot;line-height: 80%;&quot;&gt;&lt;div style=&quot;line-height: 80%;&quot;&gt;&lt;font style=&quot;font-size: 10px;&quot;&gt;4,&lt;/font&gt;&lt;/div&gt;&lt;div style=&quot;line-height: 80%;&quot;&gt;&lt;font style=&quot;font-size: 10px;&quot;&gt;S1&amp;amp;S2&lt;/font&gt;&lt;/div&gt;&lt;/div&gt;" style="edgeLabel;html=1;align=center;verticalAlign=middle;resizable=0;points=[];" vertex="1" connectable="0" parent="jbu7-Niww6oIqpqLh8VJ-8">
          <mxGeometry x="0.5023" y="-2" relative="1" as="geometry">
            <mxPoint x="-21" y="-14" as="offset" />
          </mxGeometry>
        </mxCell>
        <mxCell id="jbu7-Niww6oIqpqLh8VJ-9" style="edgeStyle=orthogonalEdgeStyle;rounded=0;html=1;labelBackgroundColor=none;startSize=5;endArrow=classicThin;endFill=1;endSize=5;jettySize=auto;orthogonalLoop=1;strokeWidth=1;fontFamily=Verdana;fontSize=8;entryX=0.555;entryY=0.033;entryDx=0;entryDy=0;entryPerimeter=0;" edge="1" parent="1" target="60e70716793133e9-13">
          <mxGeometry relative="1" as="geometry">
            <mxPoint x="70" y="430" as="sourcePoint" />
            <mxPoint x="190" y="460" as="targetPoint" />
          </mxGeometry>
        </mxCell>
        <mxCell id="jbu7-Niww6oIqpqLh8VJ-26" value="2, S2" style="edgeLabel;html=1;align=center;verticalAlign=middle;resizable=0;points=[];" vertex="1" connectable="0" parent="jbu7-Niww6oIqpqLh8VJ-9">
          <mxGeometry x="-0.3831" y="-1" relative="1" as="geometry">
            <mxPoint x="-22" y="2" as="offset" />
          </mxGeometry>
        </mxCell>
        <mxCell id="jbu7-Niww6oIqpqLh8VJ-10" style="edgeStyle=orthogonalEdgeStyle;rounded=0;html=1;labelBackgroundColor=none;startSize=5;endArrow=classicThin;endFill=1;endSize=5;jettySize=auto;orthogonalLoop=1;strokeWidth=1;fontFamily=Verdana;fontSize=8;" edge="1" parent="1">
          <mxGeometry relative="1" as="geometry">
            <mxPoint x="-7" y="430" as="sourcePoint" />
            <mxPoint x="-67" y="510" as="targetPoint" />
          </mxGeometry>
        </mxCell>
        <mxCell id="jbu7-Niww6oIqpqLh8VJ-21" value="&lt;div style=&quot;line-height: 80%;&quot;&gt;&lt;div style=&quot;line-height: 80%;&quot; align=&quot;left&quot;&gt;&lt;font style=&quot;font-size: 10px; line-height: 80%;&quot;&gt;0,no button&lt;/font&gt;&lt;/div&gt;&lt;div style=&quot;line-height: 80%;&quot; align=&quot;left&quot;&gt;&lt;font style=&quot;font-size: 10px; line-height: 80%;&quot;&gt;pressed &lt;br&gt;&lt;/font&gt;&lt;/div&gt;&lt;/div&gt;" style="edgeLabel;html=1;align=left;verticalAlign=middle;resizable=0;points=[];" vertex="1" connectable="0" parent="jbu7-Niww6oIqpqLh8VJ-10">
          <mxGeometry x="0.4623" y="-1" relative="1" as="geometry">
            <mxPoint x="-69" y="-23" as="offset" />
          </mxGeometry>
        </mxCell>
        <mxCell id="jbu7-Niww6oIqpqLh8VJ-11" value="" style="endArrow=classic;html=1;rounded=0;entryX=0.5;entryY=0;entryDx=0;entryDy=0;" edge="1" parent="1" source="jbu7-Niww6oIqpqLh8VJ-3" target="60e70716793133e9-5">
          <mxGeometry width="50" height="50" relative="1" as="geometry">
            <mxPoint x="430" y="200" as="sourcePoint" />
            <mxPoint x="240" y="134" as="targetPoint" />
          </mxGeometry>
        </mxCell>
        <mxCell id="jbu7-Niww6oIqpqLh8VJ-12" value="" style="endArrow=classic;html=1;rounded=0;exitX=0.5;exitY=1;exitDx=0;exitDy=0;entryX=0.5;entryY=0;entryDx=0;entryDy=0;" edge="1" parent="1" source="jbu7-Niww6oIqpqLh8VJ-56" target="jbu7-Niww6oIqpqLh8VJ-5">
          <mxGeometry width="50" height="50" relative="1" as="geometry">
            <mxPoint x="430" y="138" as="sourcePoint" />
            <mxPoint x="430" y="194.00000000000023" as="targetPoint" />
          </mxGeometry>
        </mxCell>
        <mxCell id="jbu7-Niww6oIqpqLh8VJ-14" value="" style="endArrow=classic;html=1;rounded=0;exitX=0.5;exitY=1;exitDx=0;exitDy=0;" edge="1" parent="1" source="60e70716793133e9-10">
          <mxGeometry width="50" height="50" relative="1" as="geometry">
            <mxPoint x="370" y="264" as="sourcePoint" />
            <mxPoint x="70" y="320" as="targetPoint" />
          </mxGeometry>
        </mxCell>
        <mxCell id="jbu7-Niww6oIqpqLh8VJ-16" style="edgeStyle=orthogonalEdgeStyle;rounded=0;html=1;labelBackgroundColor=none;startSize=5;endArrow=classicThin;endFill=1;endSize=5;jettySize=auto;orthogonalLoop=1;strokeWidth=2;fontFamily=Verdana;fontSize=8;exitX=0.5;exitY=1;exitDx=0;exitDy=0;" edge="1" parent="1" source="jbu7-Niww6oIqpqLh8VJ-6">
          <mxGeometry relative="1" as="geometry">
            <Array as="points">
              <mxPoint x="150" y="510" />
              <mxPoint x="-150" y="510" />
              <mxPoint x="-150" y="110" />
            </Array>
            <mxPoint x="190" y="520" as="sourcePoint" />
            <mxPoint x="240" y="110" as="targetPoint" />
          </mxGeometry>
        </mxCell>
        <mxCell id="jbu7-Niww6oIqpqLh8VJ-17" value="" style="edgeStyle=orthogonalEdgeStyle;rounded=0;html=1;labelBackgroundColor=none;startSize=5;endArrow=classicThin;endFill=1;endSize=5;jettySize=auto;orthogonalLoop=1;strokeWidth=1;fontFamily=Verdana;fontSize=8;exitX=0.5;exitY=1;exitDx=0;exitDy=0;" edge="1" parent="1" source="60e70716793133e9-13">
          <mxGeometry relative="1" as="geometry">
            <mxPoint x="80" y="440" as="sourcePoint" />
            <mxPoint x="70" y="510" as="targetPoint" />
            <Array as="points">
              <mxPoint x="70" y="490" />
              <mxPoint x="70" y="510" />
            </Array>
          </mxGeometry>
        </mxCell>
        <mxCell id="jbu7-Niww6oIqpqLh8VJ-18" value="" style="edgeStyle=orthogonalEdgeStyle;rounded=0;html=1;labelBackgroundColor=none;startSize=5;endArrow=classicThin;endFill=1;endSize=5;jettySize=auto;orthogonalLoop=1;strokeWidth=1;fontFamily=Verdana;fontSize=8;exitX=0.467;exitY=1.047;exitDx=0;exitDy=0;exitPerimeter=0;" edge="1" parent="1" source="60e70716793133e9-12">
          <mxGeometry relative="1" as="geometry">
            <mxPoint x="-30" y="490" as="sourcePoint" />
            <mxPoint x="-10" y="510" as="targetPoint" />
            <Array as="points" />
          </mxGeometry>
        </mxCell>
        <mxCell id="jbu7-Niww6oIqpqLh8VJ-24" style="edgeStyle=orthogonalEdgeStyle;rounded=0;html=1;labelBackgroundColor=none;startSize=5;endArrow=classicThin;endFill=1;endSize=5;jettySize=auto;orthogonalLoop=1;strokeWidth=1;fontFamily=Verdana;fontSize=8;entryX=0.5;entryY=0;entryDx=0;entryDy=0;" edge="1" parent="1" target="60e70716793133e9-12">
          <mxGeometry relative="1" as="geometry">
            <mxPoint x="70" y="430" as="sourcePoint" />
            <mxPoint x="-60" y="500" as="targetPoint" />
          </mxGeometry>
        </mxCell>
        <mxCell id="jbu7-Niww6oIqpqLh8VJ-25" value="1, S1" style="edgeLabel;html=1;align=left;verticalAlign=middle;resizable=0;points=[];" vertex="1" connectable="0" parent="jbu7-Niww6oIqpqLh8VJ-24">
          <mxGeometry x="0.4623" y="-1" relative="1" as="geometry">
            <mxPoint x="-35" y="8" as="offset" />
          </mxGeometry>
        </mxCell>
        <mxCell id="jbu7-Niww6oIqpqLh8VJ-29" value="&lt;div&gt;after setting up clock, got to clkMode 1 (HHMM)&lt;/div&gt;&lt;div&gt;&lt;br&gt;&lt;/div&gt;&lt;div&gt;clkMode =1&lt;/div&gt;" style="whiteSpace=wrap;html=1;rounded=0;shadow=1;labelBackgroundColor=none;strokeWidth=1;fontFamily=Verdana;fontSize=8;align=center;" vertex="1" parent="1">
          <mxGeometry x="377.5" y="443" width="135" height="57" as="geometry" />
        </mxCell>
        <mxCell id="jbu7-Niww6oIqpqLh8VJ-30" value="&lt;div&gt;&lt;font style=&quot;font-size: 10px;&quot;&gt;ss = ss +1&lt;/font&gt;&lt;/div&gt;" style="whiteSpace=wrap;html=1;rounded=0;shadow=1;labelBackgroundColor=none;strokeWidth=1;fontFamily=Verdana;fontSize=8;align=center;" vertex="1" parent="1">
          <mxGeometry x="643" y="194" width="70" height="20" as="geometry" />
        </mxCell>
        <mxCell id="jbu7-Niww6oIqpqLh8VJ-31" value="Start" style="ellipse;whiteSpace=wrap;html=1;aspect=fixed;" vertex="1" parent="1">
          <mxGeometry x="661.5" y="142" width="32.5" height="32.5" as="geometry" />
        </mxCell>
        <mxCell id="jbu7-Niww6oIqpqLh8VJ-32" value="" style="endArrow=classic;html=1;rounded=0;entryX=0.5;entryY=0;entryDx=0;entryDy=0;exitX=0.5;exitY=1;exitDx=0;exitDy=0;" edge="1" parent="1" source="jbu7-Niww6oIqpqLh8VJ-31" target="jbu7-Niww6oIqpqLh8VJ-30">
          <mxGeometry width="50" height="50" relative="1" as="geometry">
            <mxPoint x="250" y="107" as="sourcePoint" />
            <mxPoint x="250" y="144" as="targetPoint" />
          </mxGeometry>
        </mxCell>
        <mxCell id="jbu7-Niww6oIqpqLh8VJ-33" value="ss&amp;gt;=60?" style="rhombus;whiteSpace=wrap;html=1;rounded=0;shadow=1;labelBackgroundColor=none;strokeWidth=1;fontFamily=Verdana;fontSize=8;align=center;" vertex="1" parent="1">
          <mxGeometry x="627" y="230" width="100" height="22" as="geometry" />
        </mxCell>
        <mxCell id="jbu7-Niww6oIqpqLh8VJ-34" value="No" style="edgeStyle=orthogonalEdgeStyle;rounded=0;html=1;labelBackgroundColor=none;startSize=5;endArrow=classicThin;endFill=1;endSize=5;jettySize=auto;orthogonalLoop=1;strokeWidth=1;fontFamily=Verdana;fontSize=8;exitX=1;exitY=0.5;exitDx=0;exitDy=0;" edge="1" parent="1" source="jbu7-Niww6oIqpqLh8VJ-33">
          <mxGeometry x="-0.7975" y="5" relative="1" as="geometry">
            <mxPoint as="offset" />
            <mxPoint x="730" y="230" as="sourcePoint" />
            <mxPoint x="840" y="320" as="targetPoint" />
          </mxGeometry>
        </mxCell>
        <mxCell id="jbu7-Niww6oIqpqLh8VJ-37" value="Yes" style="edgeStyle=orthogonalEdgeStyle;rounded=0;html=1;labelBackgroundColor=none;startSize=5;endArrow=classicThin;endFill=1;endSize=5;jettySize=auto;orthogonalLoop=1;strokeWidth=1;fontFamily=Verdana;fontSize=8;exitX=0.5;exitY=1;exitDx=0;exitDy=0;entryX=0.506;entryY=0.041;entryDx=0;entryDy=0;entryPerimeter=0;" edge="1" parent="1" source="jbu7-Niww6oIqpqLh8VJ-33" target="jbu7-Niww6oIqpqLh8VJ-38">
          <mxGeometry x="-0.1743" y="-18" relative="1" as="geometry">
            <mxPoint as="offset" />
            <mxPoint x="679.77" y="250" as="sourcePoint" />
            <mxPoint x="680" y="270" as="targetPoint" />
          </mxGeometry>
        </mxCell>
        <mxCell id="jbu7-Niww6oIqpqLh8VJ-38" value="&lt;div style=&quot;line-height: 80%;&quot;&gt;&lt;div style=&quot;line-height: 80%;&quot;&gt;&lt;div style=&quot;line-height: 80%;&quot;&gt;&lt;div style=&quot;line-height: 80%;&quot;&gt;&lt;font style=&quot;font-size: 10px; line-height: 80%;&quot;&gt;ss = 0&lt;/font&gt;&lt;/div&gt;&lt;div style=&quot;line-height: 80%;&quot;&gt;&lt;font style=&quot;font-size: 10px; line-height: 80%;&quot;&gt;mm=mm+1&lt;/font&gt;&lt;/div&gt;&lt;/div&gt;&lt;/div&gt;&lt;/div&gt;" style="whiteSpace=wrap;html=1;rounded=0;shadow=1;labelBackgroundColor=none;strokeWidth=1;fontFamily=Verdana;fontSize=8;align=center;opacity=80;" vertex="1" parent="1">
          <mxGeometry x="626" y="269" width="100" height="29" as="geometry" />
        </mxCell>
        <mxCell id="jbu7-Niww6oIqpqLh8VJ-39" value="" style="endArrow=classic;html=1;rounded=0;entryX=0.5;entryY=0;entryDx=0;entryDy=0;exitX=0.492;exitY=1.151;exitDx=0;exitDy=0;exitPerimeter=0;" edge="1" parent="1" source="jbu7-Niww6oIqpqLh8VJ-30" target="jbu7-Niww6oIqpqLh8VJ-33">
          <mxGeometry width="50" height="50" relative="1" as="geometry">
            <mxPoint x="688" y="184" as="sourcePoint" />
            <mxPoint x="687" y="200" as="targetPoint" />
          </mxGeometry>
        </mxCell>
        <mxCell id="jbu7-Niww6oIqpqLh8VJ-40" value="mm&amp;gt;=60?" style="rhombus;whiteSpace=wrap;html=1;rounded=0;shadow=1;labelBackgroundColor=none;strokeWidth=1;fontFamily=Verdana;fontSize=8;align=center;" vertex="1" parent="1">
          <mxGeometry x="628" y="310" width="100" height="22" as="geometry" />
        </mxCell>
        <mxCell id="jbu7-Niww6oIqpqLh8VJ-41" value="No" style="edgeStyle=orthogonalEdgeStyle;rounded=0;html=1;labelBackgroundColor=none;startSize=5;endArrow=classicThin;endFill=1;endSize=5;jettySize=auto;orthogonalLoop=1;strokeWidth=1;fontFamily=Verdana;fontSize=8;exitX=1;exitY=0.5;exitDx=0;exitDy=0;" edge="1" parent="1" source="jbu7-Niww6oIqpqLh8VJ-40">
          <mxGeometry x="-0.7975" y="5" relative="1" as="geometry">
            <mxPoint as="offset" />
            <mxPoint x="731" y="310" as="sourcePoint" />
            <mxPoint x="840" y="410" as="targetPoint" />
          </mxGeometry>
        </mxCell>
        <mxCell id="jbu7-Niww6oIqpqLh8VJ-42" value="Yes" style="edgeStyle=orthogonalEdgeStyle;rounded=0;html=1;labelBackgroundColor=none;startSize=5;endArrow=classicThin;endFill=1;endSize=5;jettySize=auto;orthogonalLoop=1;strokeWidth=1;fontFamily=Verdana;fontSize=8;exitX=0.5;exitY=1;exitDx=0;exitDy=0;entryX=0.506;entryY=0.041;entryDx=0;entryDy=0;entryPerimeter=0;" edge="1" parent="1" source="jbu7-Niww6oIqpqLh8VJ-40" target="jbu7-Niww6oIqpqLh8VJ-43">
          <mxGeometry x="-0.1743" y="-18" relative="1" as="geometry">
            <mxPoint as="offset" />
            <mxPoint x="680.77" y="330" as="sourcePoint" />
            <mxPoint x="681" y="350" as="targetPoint" />
          </mxGeometry>
        </mxCell>
        <mxCell id="jbu7-Niww6oIqpqLh8VJ-43" value="&lt;div style=&quot;line-height: 100%;&quot;&gt;&lt;div&gt;&lt;font style=&quot;font-size: 10px; line-height: 100%;&quot;&gt;mm = 0&lt;/font&gt;&lt;/div&gt;&lt;div&gt;&lt;font style=&quot;font-size: 10px; line-height: 100%;&quot;&gt;hh=hh+1&lt;/font&gt;&lt;/div&gt;&lt;/div&gt;" style="whiteSpace=wrap;html=1;rounded=0;shadow=1;labelBackgroundColor=none;strokeWidth=1;fontFamily=Verdana;fontSize=8;align=center;" vertex="1" parent="1">
          <mxGeometry x="627" y="351" width="100" height="30" as="geometry" />
        </mxCell>
        <mxCell id="jbu7-Niww6oIqpqLh8VJ-44" value="hh&amp;gt;=24?" style="rhombus;whiteSpace=wrap;html=1;rounded=0;shadow=1;labelBackgroundColor=none;strokeWidth=1;fontFamily=Verdana;fontSize=8;align=center;" vertex="1" parent="1">
          <mxGeometry x="629" y="392" width="100" height="22" as="geometry" />
        </mxCell>
        <mxCell id="jbu7-Niww6oIqpqLh8VJ-45" value="No" style="edgeStyle=orthogonalEdgeStyle;rounded=0;html=1;labelBackgroundColor=none;startSize=5;endArrow=classicThin;endFill=1;endSize=5;jettySize=auto;orthogonalLoop=1;strokeWidth=1;fontFamily=Verdana;fontSize=8;exitX=1;exitY=0.5;exitDx=0;exitDy=0;" edge="1" parent="1" source="jbu7-Niww6oIqpqLh8VJ-44">
          <mxGeometry x="-0.9329" y="3" relative="1" as="geometry">
            <mxPoint as="offset" />
            <mxPoint x="732" y="390" as="sourcePoint" />
            <mxPoint x="680" y="460" as="targetPoint" />
            <Array as="points">
              <mxPoint x="840" y="403" />
              <mxPoint x="840" y="460" />
            </Array>
          </mxGeometry>
        </mxCell>
        <mxCell id="jbu7-Niww6oIqpqLh8VJ-46" value="Yes" style="edgeStyle=orthogonalEdgeStyle;rounded=0;html=1;labelBackgroundColor=none;startSize=5;endArrow=classicThin;endFill=1;endSize=5;jettySize=auto;orthogonalLoop=1;strokeWidth=1;fontFamily=Verdana;fontSize=8;exitX=0.5;exitY=1;exitDx=0;exitDy=0;entryX=0.506;entryY=0.041;entryDx=0;entryDy=0;entryPerimeter=0;" edge="1" parent="1" source="jbu7-Niww6oIqpqLh8VJ-44" target="jbu7-Niww6oIqpqLh8VJ-47">
          <mxGeometry x="-0.1743" y="-18" relative="1" as="geometry">
            <mxPoint as="offset" />
            <mxPoint x="681.77" y="410" as="sourcePoint" />
            <mxPoint x="682" y="430" as="targetPoint" />
          </mxGeometry>
        </mxCell>
        <mxCell id="jbu7-Niww6oIqpqLh8VJ-47" value="&lt;div style=&quot;line-height: 100%;&quot;&gt;&lt;div&gt;&lt;font style=&quot;font-size: 10px; line-height: 100%;&quot;&gt;hh = 0&lt;/font&gt;&lt;/div&gt;&lt;/div&gt;" style="whiteSpace=wrap;html=1;rounded=0;shadow=1;labelBackgroundColor=none;strokeWidth=1;fontFamily=Verdana;fontSize=8;align=center;" vertex="1" parent="1">
          <mxGeometry x="628" y="431" width="100" height="19" as="geometry" />
        </mxCell>
        <mxCell id="jbu7-Niww6oIqpqLh8VJ-48" value="" style="edgeStyle=orthogonalEdgeStyle;rounded=0;html=1;labelBackgroundColor=none;startSize=5;endArrow=classicThin;endFill=1;endSize=5;jettySize=auto;orthogonalLoop=1;strokeWidth=1;fontFamily=Verdana;fontSize=8;exitX=0.538;exitY=1.032;exitDx=0;exitDy=0;entryX=0.5;entryY=0;entryDx=0;entryDy=0;exitPerimeter=0;" edge="1" parent="1" source="jbu7-Niww6oIqpqLh8VJ-43" target="jbu7-Niww6oIqpqLh8VJ-44">
          <mxGeometry x="-0.1743" y="-18" relative="1" as="geometry">
            <mxPoint as="offset" />
            <mxPoint x="688" y="342" as="sourcePoint" />
            <mxPoint x="688" y="362" as="targetPoint" />
          </mxGeometry>
        </mxCell>
        <mxCell id="jbu7-Niww6oIqpqLh8VJ-49" value="" style="endArrow=classic;html=1;rounded=0;entryX=0.5;entryY=0;entryDx=0;entryDy=0;exitX=0.529;exitY=0.986;exitDx=0;exitDy=0;exitPerimeter=0;" edge="1" parent="1" source="jbu7-Niww6oIqpqLh8VJ-38" target="jbu7-Niww6oIqpqLh8VJ-40">
          <mxGeometry width="50" height="50" relative="1" as="geometry">
            <mxPoint x="686" y="223" as="sourcePoint" />
            <mxPoint x="687" y="240" as="targetPoint" />
          </mxGeometry>
        </mxCell>
        <mxCell id="jbu7-Niww6oIqpqLh8VJ-50" value="return" style="ellipse;whiteSpace=wrap;html=1;" vertex="1" parent="1">
          <mxGeometry x="642" y="472" width="70" height="20" as="geometry" />
        </mxCell>
        <mxCell id="jbu7-Niww6oIqpqLh8VJ-51" value="" style="edgeStyle=orthogonalEdgeStyle;rounded=0;html=1;labelBackgroundColor=none;startSize=5;endArrow=classicThin;endFill=1;endSize=5;jettySize=auto;orthogonalLoop=1;strokeWidth=1;fontFamily=Verdana;fontSize=8;exitX=0.491;exitY=1.012;exitDx=0;exitDy=0;entryX=0.493;entryY=-0.089;entryDx=0;entryDy=0;entryPerimeter=0;exitPerimeter=0;" edge="1" parent="1" source="jbu7-Niww6oIqpqLh8VJ-47" target="jbu7-Niww6oIqpqLh8VJ-50">
          <mxGeometry x="-0.1743" y="-18" relative="1" as="geometry">
            <mxPoint as="offset" />
            <mxPoint x="689" y="424" as="sourcePoint" />
            <mxPoint x="689" y="442" as="targetPoint" />
          </mxGeometry>
        </mxCell>
        <mxCell id="jbu7-Niww6oIqpqLh8VJ-54" value="interrupt service routine&lt;div&gt;&lt;font style=&quot;font-size: 16px;&quot;&gt;updateHHMMSS()&lt;/font&gt;&lt;/div&gt;" style="text;html=1;align=center;verticalAlign=middle;whiteSpace=wrap;rounded=0;" vertex="1" parent="1">
          <mxGeometry x="661.5" y="97" width="60" height="30" as="geometry" />
        </mxCell>
        <mxCell id="jbu7-Niww6oIqpqLh8VJ-56" value="btnState = readButton()" style="shape=parallelogram;perimeter=parallelogramPerimeter;whiteSpace=wrap;html=1;fixedSize=1;" vertex="1" parent="1">
          <mxGeometry x="-55" y="321" width="250" height="30" as="geometry" />
        </mxCell>
      </root>
    </mxGraphModel>
  </diagram>
</mxfile>
